<svg xmlns="http://www.w3.org/2000/svg" viewBox="-153 -46 652 652"><path d="M104.6 211.4v101.8l13.1.1v-48.5h31.6V252h-31.6v-27.8h41.1v-12.8h-54.2zm77.8 20.7c4.7 0 8.6-3.8 8.6-8.6s-3.8-8.6-8.6-8.6c-4.7 0-8.6 3.8-8.6 8.6s3.8 8.6 8.6 8.6zm-6.7 12.8v68.4h13.1v-68.4h-13.1zm61.7-2c-17.4 0-29.5 14.7-29.5 32.2 0 17.5 12.1 32.2 29.5 32.2 8 0 14.5-3 19.3-8.1v9.1c.1 11.3-8.9 20.7-20.3 20.8h-.2c-4.2 0-8.3-1.6-11.6-3.9l-6.6 11.4c15.6 10.1 36.4 5.6 46.4-10 3.5-5.5 5.4-11.8 5.4-18.3V245h-13.1v6.1c-4.8-5.1-11.3-8.2-19.3-8.2zM221 275.1c0-10.9 8.3-19.4 17.9-19.4 9.6 0 17.8 8.6 17.8 19.4 0 10.9-8.3 19.3-17.8 19.3-9.6 0-17.9-8.5-17.9-19.3zm96-19.4c-7.8.1-14.1 6.5-14 14.3v43.2h-13.1v-68.4H303v6.3c4-5.3 10.2-8.3 16.9-8.2 9.2 0 16.3 4.5 20.3 11.5 4.6-7.1 12.4-11.4 20.8-11.5 14.9 0 24.2 12 24.2 26.9v43.4h-13V270c0-7.8-6.2-14.2-14-14.3-7.8.1-14.1 6.5-14 14.3v43.2H331V270c0-7.8-6.2-14.2-14-14.3zm138-3.1c-6-6.3-14.4-9.8-23.1-9.7-19.5 0-33.3 16.5-33.3 36.1 0 19.7 13.8 36.1 33.3 36.1 8.7 0 17-3.5 23.1-9.7v7.8h13.1v-68.4H455v7.8zM411.7 279c0-13 10-23.4 21.7-23.4C445 255.7 455 266 455 279c0 13-10 23.3-21.7 23.3-11.5.1-21.6-10.2-21.6-23.3z"/><path d="M-64.6 274.5c0-18.6 15.1-33.7 33.7-33.7s33.7 15.1 33.7 33.7-15.1 33.7-33.7 33.7-33.7-15.1-33.7-33.7z" fill="#1abcfe"/><path d="M-131.9 341.8c0-18.6 15.1-33.7 33.7-33.7h33.7v33.7c0 18.6-15.1 33.7-33.7 33.7s-33.7-15.1-33.7-33.7z" fill="#0acf83"/><path d="M-64.6 173.5v67.3h33.7c18.6 0 33.7-15.1 33.7-33.7s-15.1-33.7-33.7-33.7h-33.7z" fill="#ff7262"/><path d="M-131.9 207.2c0 18.6 15.1 33.7 33.7 33.7h33.7v-67.3h-33.7c-18.6-.1-33.7 15-33.7 33.6z" fill="#f24e1e"/><path d="M-131.9 274.5c0 18.6 15.1 33.7 33.7 33.7h33.7v-67.3h-33.7c-18.6-.1-33.7 15-33.7 33.6z" fill="#a259ff"/></svg>